#!OML:ASF F:\VICON\USERDATA\INSTALL\rory3\rory3.ASF
:FULLY-SPECIFIED
:DEGREES
1152
root 4.32183 17.8177 -4.4917 175.949 58.4178 173.246
lowerback 3.74375 1.49814 -5.90707
upperback 0.934226 1.80407 -1.46412
thorax -1.26906 0.938343 1.71274
lowerneck -8.70034 -1.26998 -4.2049
upperneck 31.6173 0.679183 0.571472
head 11.7609 0.507122 1.16319
rclavicle 6.89286e-014 1.27222e-014
rhumerus -37.1048 -2.13845 -82.7155
rradius 33.9523
rwrist -7.74512
rhand -12.8045 14.7669
rfingers 7.12502
rthumb 13.2816 -14.7899
lclavicle 6.89286e-014 1.27222e-014
lhumerus -33.9516 -11.4785 84.8048
lradius 50.7032
lwrist 20.034
lhand -7.02912 29.0398
lfingers 7.12502
lthumb 18.8428 58.1472
rfemur -30.9785 0.566692 16.4856
rtibia 41.408
rfoot -9.75681 -8.82199
rtoes -30.6793
lfemur -6.43041 -3.8624 -29.3235
ltibia 22.4573
lfoot -18.3776 6.71523
ltoes -12.4848
1153
root 4.39399 17.8197 -4.53153 175.921 58.3803 173.2
lowerback 3.65158 1.49564 -5.93075
upperback 0.949678 1.80734 -1.43609
thorax -1.20336 0.937868 1.75738
lowerneck -8.71735 -1.29512 -4.20397
upperneck 31.7154 0.691222 0.469428
head 11.8048 0.503315 1.12867
rclavicle -6.93262e-015 -3.97569e-016
rhumerus -37.0727 -2.32042 -82.6444
rradius 33.8365
rwrist -7.51052
rhand -12.8045 14.861
rfingers 7.12502
rthumb 13.2817 -14.6958
lclavicle -6.93262e-015 -3.97569e-016
lhumerus -33.8934 -11.6273 84.9062
lradius 51.4135
lwrist 19.9154
lhand -6.42414 28.8175
lfingers 7.12502
lthumb 19.4246 57.8672
rfemur -30.7407 1.10054 16.2858
rtibia 39.3848
rfoot -9.85609 -9.29952
rtoes -31.0322
lfemur -5.96729 -3.82578 -29.3547
ltibia 22.1433
lfoot -18.3734 6.57816
ltoes -11.7644
1154
root 4.46934 17.823 -4.56854 175.897 58.3611 173.149
lowerback 3.55953 1.52475 -5.9742
upperback 0.938612 1.85033 -1.40432
thorax -1.16884 0.958271 1.81436
lowerneck -8.66184 -1.33685 -4.30064
upperneck 31.8279 0.6696 0.479888
head 11.8402 0.489238 1.1494
rclavicle -4.72114e-016 4.37326e-015
rhumerus -37.1656 -2.49367 -82.5271
rradius 33.8179
rwrist -7.39237
rhand -12.6926 14.7845
rfingers 7.12502
rthumb 13.3895 -14.7653
lclavicle -4.72114e-016 4.37326e-015
lhumerus -33.8351 -11.8213 84.9925
lradius 52.0524
lwrist 19.3363
lhand -5.69172 28.684
lfingers 7.12502
lthumb 20.1287 57.6612
rfemur -30.5096 1.64424 16.0865
rtibia 37.4031
rfoot -10.002 -9.74953
rtoes -30.6087
lfemur -5.51871 -3.83177 -29.3727
ltibia 21.8358
lfoot -18.4552 6.49786
ltoes -11.6129
1155
root 4.54198 17.8226 -4.60597 175.995 58.3059 173.261
lowerback 3.51335 1.55261 -5.8847
upperback 0.931126 1.89224 -1.35031
thorax -1.15304 0.977822 1.81916
lowerneck -8.53514 -1.36845 -4.32165
upperneck 31.8448 0.655792 0.420734
head 11.8224 0.478878 1.12979
rclavicle -9.36773e-015 1.80894e-014
rhumerus -37.2743 -2.68267 -82.391
rradius 33.8073
rwrist -7.41857
rhand -12.551 14.6388
rfingers 7.12502
rthumb 13.526 -14.9019
lclavicle -9.36773e-015 1.80894e-014
lhumerus -33.7733 -12.1487 85.1278
lradius 52.6943
lwrist 19.0505
lhand -5.44452 28.7011
lfingers 7.12502
lthumb 20.3663 57.6532
rfemur -30.211 2.20008 15.9237
rtibia 35.4587
rfoot -10.3404 -10.0702
rtoes -29.1168
lfemur -5.0461 -3.8352 -29.307
ltibia 21.5069
lfoot -18.466 6.47927
ltoes -12.1069
1156
root 4.61386 17.8205 -4.64622 176.08 58.2121 173.384
lowerback 3.46422 1.57382 -5.77052
upperback 0.961002 1.92856 -1.29706
thorax -1.09574 0.993129 1.81052
lowerneck -8.44867 -1.41162 -4.24817
upperneck 31.8412 0.626802 0.279119
head 11.8051 0.461197 1.0606
rclavicle 1.27247e-013 -4.05521e-014
rhumerus -37.2887 -2.81453 -82.3312
rradius 33.7147
rwrist -7.49608
rhand -12.3558 14.8799
rfingers 7.12502
rthumb 13.7142 -14.6482
lclavicle 1.27247e-013 -4.05521e-014
lhumerus -33.6669 -12.3987 85.2681
lradius 53.2771
lwrist 18.9966
lhand -5.23351 28.5684
lfingers 7.12502
lthumb 20.569 57.4987
rfemur -29.8651 2.66377 15.7759
rtibia 33.5455
rfoot -10.6065 -10.4007
rtoes -28.15
lfemur -4.53203 -3.85313 -29.2602
ltibia 21.1726
lfoot -18.5795 6.49417
ltoes -12.2038
1157
root 4.68729 17.8212 -4.68889 176.251 58.095 173.621
lowerback 3.42389 1.54551 -5.61149
upperback 0.987031 1.89859 -1.19708
thorax -1.04268 0.974972 1.8279
lowerneck -8.42932 -1.42472 -4.29827
upperneck 31.9021 0.656738 0.199136
head 11.8265 0.46248 1.04458
rclavicle -4.24902e-015 7.35503e-015
rhumerus -37.3278 -2.78506 -82.2678
rradius 33.6327
rwrist -7.59048
rhand -11.7638 15.5478
rfingers 7.12502
rthumb 14.2847 -13.9409
lclavicle -4.24902e-015 7.35503e-015
lhumerus -33.711 -12.6138 85.5029
lradius 53.9352
lwrist 19.3017
lhand -5.44708 28.5
lfingers 7.12502
lthumb 20.3638 57.4523
rfemur -29.5625 2.83967 15.8069
rtibia 31.6852
rfoot -10.373 -10.9253
rtoes -29.5084
lfemur -3.98627 -3.94884 -29.1662
ltibia 20.8432
lfoot -18.7596 6.56471
ltoes -12.0932
